#!OML:ASF E:/inclinewalkrobotboard/Project1/Captureday1/Session1/subject1.ASF
:FULLY-SPECIFIED
:DEGREES
238
root 0 0 0 2.8397440173445756 -4.230113304132963 2.2301746353802656
lowerback 11.797775374715224 1.1637864379379943 -0.17078515663684157
upperback -4.2127499449244805 1.484967354294925 -0.8073469572302826
thorax -11.086664411865595 0.6835287088527249 -1.0671010157292717
lowerneck -6.95138668917545 1.2857186895903776 4.264794579113038
upperneck 19.165017923571394 2.6942955835849096 -8.035240051803363
head 7.152771042503764 0.922461534277412 -3.1253224925982446
rclavicle -1.0760924062667762E-15 -7.143688167665873E-16
rhumerus 17.335453431077582 13.260318847416167 -51.394852872088975
rradius 68.82372280973402
rwrist 23.763885627414616
rhand -32.920931407004375 -48.96070017491943
rfingers 7.125019999999962
rthumb -6.1858497500148495 -79.02468799954632
lclavicle 1.0187880282124732E-15 9.092286376334222E-16
lhumerus 17.4582584504685 -13.315672312181002 49.43253569630424
lradius 66.90530426934968
lwrist -18.324398144754216
lhand -43.88514717382214 -60.424396754167375
lfingers 7.125019999999955
lthumb -16.72183996811408 -30.967753667252882
rfemur -23.99477837534631 1.959619696885804 19.445691839918187
rtibia 33.38932657988455
rfoot -26.262298693495936 -15.695448309897227
rtoes -20.9530220112286
lfemur -19.735478492554325 -0.12013271434361333 -15.506713135315398
ltibia 31.583409704921333
lfoot -25.29733866094584 4.702919654626247
ltoes -20.059589832402892
239
root 0 0 0 2.726968124391182 -4.190124084129149 2.314391770154545
lowerback 11.802822215782129 1.1411472877475268 -0.24498510184351097
upperback -4.216060661442704 1.4446463627442938 -0.8181284237105338
thorax -11.09803113249083 0.6658973256410263 -1.0297915241598357
lowerneck -6.914332906498962 1.2822794963141624 4.275403009086337
upperneck 19.354210793220695 2.6916617978033477 -8.080968042517176
head 7.210734480501913 0.9170440483479939 -3.143735787862229
rclavicle -7.706454504550067E-16 -8.762406868598976E-16
rhumerus 16.865241757977905 12.627494085233996 -51.01951716857522
rradius 68.44543794825827
rwrist 24.18610749798436
rhand -32.9038935312572 -48.99018752263036
rfingers 7.125019999999962
rthumb -6.167546839021291 -79.07404959888899
lclavicle 1.0636876674408555E-15 6.755523408121901E-16
lhumerus 17.273233770659765 -12.956946428988996 49.32501617351754
lradius 66.67121215456936
lwrist -18.522679566788906
lhand -43.87171418241745 -60.681355724514134
lfingers 7.125019999999955
lthumb -16.71047286249706 -31.22248232693285
rfemur -25.037040370851088 1.072510721677376 18.120467384114466
rtibia 39.555238220999286
rfoot -21.891880428168722 -14.89927813701818
rtoes -19.778413748766443
lfemur -18.427774230048414 0.16656057662630197 -15.17231379739804
ltibia 35.710129756998526
lfoot -21.938155074134613 2.1350594410874617
ltoes -20.64493609561191
240
root 0 0 0 2.5070516175480835 -4.124201706925522 2.4838373584403355
lowerback 11.867822046629113 1.0939589477221923 -0.397581372585866
upperback -4.204995043048405 1.362750048732251 -0.8333084073623968
thorax -11.136580897080949 0.6304202305496496 -0.9470860655056534
lowerneck -6.882028598660579 1.3011206896592313 4.290165315725582
upperneck 19.51246640221892 2.7222664523713345 -8.14312888905659
head 7.258982355746972 0.9255219589786706 -3.16516140227359
rclavicle -4.85594975371243E-16 -1.1574171591060596E-15
rhumerus 16.41472068502233 12.002250315875392 -50.62096872872965
rradius 68.0831874870535
rwrist 24.628865673463565
rhand -32.89600232061178 -49.06212299908102
rfingers 7.125019999999962
rthumb -6.158900176473431 -79.17031371127561
lclavicle 1.0591296285006144E-15 3.593295900167223E-16
lhumerus 17.185650392315175 -12.678314774035416 49.20174274283869
lradius 66.52419478619348
lwrist -18.708594812851214
lhand -43.88733001864364 -60.997542507658224
lfingers 7.125019999999955
lthumb -16.726958728908933 -31.540014810875892
rfemur -27.741788419389 -0.41746835613357014 16.200849059720433
rtibia 49.24505160567049
rfoot -16.268643985865165 -14.078728894697775
rtoes -17.08421130838481
lfemur -17.23699081010199 1.1256746910299569 -14.96781085105022
ltibia 44.12296109513689
lfoot -18.214151397450735 -1.4207902171792377
ltoes -20.99409936001534
241
root 0 0 0 2.179449760045365 -3.994328097423148 2.716149285469616
lowerback 11.995785754813841 1.0061752794609229 -0.6222279332371005
upperback -4.168471418530908 1.219436165007896 -0.836340555101896
thorax -11.192789636787682 0.5674631154087892 -0.8018309449511052
lowerneck -6.893527328492445 1.3428159520230747 4.303828554778718
upperneck 19.596082980383397 2.7867831578338684 -8.208841152479014
head 7.28898766135227 0.9488311118269376 -3.1847011207938705
rclavicle -3.4834509787490597E-16 -1.519801362218794E-15
rhumerus 16.044905186003938 11.472297517859664 -50.261342158753315
rradius 67.7857683122933
rwrist 25.02480152338722
rhand -32.89655280109617 -49.15703996127944
rfingers 7.125019999999963
rthumb -6.158867747606477 -79.28926451107144
lclavicle 9.311492348943436E-16 1.4238750402325707E-17
lhumerus 17.222348622366816 -12.55882219191489 49.09471904146079
lradius 66.50871741868495
lwrist -18.831609325329154
lhand -43.92920386580883 -61.29316748601565
lfingers 7.125019999999955
lthumb -16.768459672137908 -31.839805578322416
rfemur -30.890945050217354 -1.6460790683403292 14.847411766204155
rtibia 56.92360786603679
rfoot -11.774607422606723 -13.33124834749215
rtoes -13.618988068037996
lfemur -16.329559326781865 2.593952000333029 -15.028684747558016
ltibia 55.375438145214275
lfoot -13.820539358078147 -5.665063187293827
ltoes -20.200464151417474
242
root 0 0 0 1.8288951553304336 -3.8079233330737816 2.930137836935453
lowerback 12.150620453723867 0.8855530080006819 -0.8544077565836922
upperback -4.110181285773928 1.0332786151088995 -0.811866811213732
thorax -11.244210042041768 0.484157476517112 -0.6171612924969905
lowerneck -6.96794938461218 1.389867005317137 4.309356451945719
upperneck 19.619178954028218 2.8593821183409878 -8.264169413554505
head 7.3083671646648725 0.9761569644295068 -3.199059154513626
rclavicle -4.256941419034934E-16 -1.868713969136437E-15
rhumerus 15.806262528968576 11.129863077849278 -50.02947981150404
rradius 67.59433352248219
rwrist 25.280320547421805
rhand -32.89736210360614 -49.219217211033325
rfingers 7.125019999999963
rthumb -6.158953373537381 -79.36464872001736
lclavicle 6.382507428409529E-16 -2.490911096897652E-16
lhumerus 17.338362396256656 -12.618958291255181 49.048160359260734
lradius 66.60461645455267
lwrist -18.85008277300327
lhand -43.97286229207504 -61.44272529702189
lfingers 7.125019999999956
lthumb -16.811435078657038 -31.994397060208644
rfemur -33.270352240738546 -2.3091252542630434 14.441188076222748
rtibia 60.947343469568935
rfoot -9.950542169611534 -12.996908155145894
rtoes -10.538680345691859
lfemur -16.539849446424054 4.0564397516021184 -15.361397561397261
ltibia 64.49582073915165
lfoot -9.821786388219047 -8.72192073724468
ltoes -17.3388315980486
